<?xml version='1.0' encoding='ASCII'?>
<svg xmlns:dc="http://purl.org/dc/elements/1.1/" xmlns:cc="http://creativecommons.org/ns#" xmlns:rdf="http://www.w3.org/1999/02/22-rdf-syntax-ns#" xmlns:svg="http://www.w3.org/2000/svg" xmlns="http://www.w3.org/2000/svg" xmlns:sodipodi="http://sodipodi.sourceforge.net/DTD/sodipodi-0.dtd" xmlns:inkscape="http://www.inkscape.org/namespaces/inkscape" version="1.1" id="Logotype" x="0px" y="0px" width="200px" height="150px" viewBox="0 0 4000 3326" sodipodi:docname="source_853827844_377.svg" inkscape:version="0.92.3 (2405546, 2018-03-11)">
  <!--Creator: logaster.com--><metadata id="metadata34">
    <rdf:RDF>
      <cc:Work rdf:about="">
        <dc:format>image/svg+xml</dc:format>
        <dc:type rdf:resource="http://purl.org/dc/dcmitype/StillImage"/>
      </cc:Work>
    </rdf:RDF>
  </metadata>
  <sodipodi:namedview pagecolor="#ffffff" bordercolor="#666666" borderopacity="1" objecttolerance="10" gridtolerance="10" guidetolerance="10" inkscape:pageopacity="0" inkscape:pageshadow="2" inkscape:window-width="640" inkscape:window-height="480" id="namedview32" showgrid="false" inkscape:zoom="0.070956103" inkscape:cx="2000" inkscape:cy="1663" inkscape:window-x="0" inkscape:window-y="0" inkscape:window-maximized="0" inkscape:current-layer="Logotype"/>
  <defs id="defs2"/>
  <path style="fill:#000000;stroke-width:12.66497898" d="M 928.77539 1617.8945 L 653.29883 1737.2871 L 653.29883 1803.5508 L 928.77539 1922.9551 L 928.77539 1845.459 L 736.82422 1769.8867 L 928.77539 1695.9355 L 928.77539 1617.8945 z " id="body1"/>
  <path style="fill:#000000;stroke-width:12.66497898" d="M 1076.6641 1560.6602 C 1066.0635 1560.6602 1058.9454 1563.7649 1055.2852 1569.9707 C 1051.6377 1576.1765 1047.8136 1587.675 1043.7988 1604.4688 L 967.39062 1920.207 C 963.74311 1937.0008 961.90625 1947.4886 961.90625 1951.6934 C 961.90625 1967.7272 971.22818 1975.7812 989.8457 1975.7812 C 997.3307 1975.7813 1003.0426 1974.109 1006.9688 1970.7148 C 1010.8823 1967.3839 1013.8083 1962.6594 1015.7207 1956.6309 C 1017.6458 1950.615 1019.8742 1942.3842 1022.4199 1931.9863 L 1099.1074 1616.248 C 1102.9323 1601.278 1104.8574 1590.9678 1104.8574 1585.3066 C 1104.8574 1577.6443 1102.4376 1571.6165 1097.5996 1567.2344 C 1092.7616 1562.8523 1085.7955 1560.6602 1076.6641 1560.6602 z " id="body2"/>
  <path style="fill:#000000;stroke-width:12.66497898" d="M 1137.7227 1618.9844 L 1137.7227 1695.9355 L 1330.2305 1770.4316 L 1137.7227 1846.0039 L 1137.7227 1923.5 L 1413.1992 1803.5508 L 1413.1992 1737.832 L 1137.7227 1618.9844 z " id="body3"/>
  <path style="fill:#000000;stroke-width:12.66497898" d="M 475.99023 1172.9727 C 434.03116 1172.9727 400 1207.0039 400 1248.9629 L 400 2211.502 C 400 2253.461 434.03116 2287.4922 475.99023 2287.4922 L 1590.5078 2287.4922 C 1632.4796 2287.4922 1666.498 2253.4484 1666.498 2211.502 L 1666.498 1248.9629 C 1666.498 1206.9912 1632.4796 1172.9727 1590.5078 1172.9727 L 475.99023 1172.9727 z M 1261.2188 1223.6328 C 1289.1451 1223.6328 1311.8789 1246.3541 1311.8789 1274.293 C 1311.8789 1302.2319 1289.1451 1324.9531 1261.2188 1324.9531 C 1233.2924 1324.9531 1210.5586 1302.2319 1210.5586 1274.293 C 1210.5586 1246.3541 1233.2924 1223.6328 1261.2188 1223.6328 z M 1400.5332 1223.6328 C 1428.4595 1223.6328 1451.1934 1246.3541 1451.1934 1274.293 C 1451.1934 1302.2319 1428.4595 1324.9531 1400.5332 1324.9531 C 1372.607 1324.9531 1349.873 1302.2319 1349.873 1274.293 C 1349.873 1246.3541 1372.607 1223.6328 1400.5332 1223.6328 z M 1539.8477 1223.6328 C 1567.774 1223.6328 1590.5078 1246.3541 1590.5078 1274.293 C 1590.5078 1302.2319 1567.774 1324.9531 1539.8477 1324.9531 C 1511.9214 1324.9531 1489.1875 1302.2319 1489.1875 1274.293 C 1489.1875 1246.3541 1511.9214 1223.6328 1539.8477 1223.6328 z M 475.99023 1375.6133 L 1590.5078 1375.6133 L 1590.5078 2211.502 L 475.99023 2211.502 L 475.99023 1375.6133 z " id="body4"/>
  <path style="font-style:normal;font-weight:normal;font-size:479.74942017px;font-family:Marketing-Script, 'Marketing Script', 'Marketing Script';letter-spacing:0px;fill:#000000;stroke-width:19.98955917" d="M 2292.4551 1326.7188 C 2263.3503 1326.7188 2233.1249 1339.991 2201.7812 1366.5371 C 2154.7658 1406.8361 2113.668 1464.5658 2078.4863 1539.7266 C 2057.6972 1584.823 2047.3027 1626.2421 2047.3027 1663.9824 C 2047.3027 1703.002 2059.4564 1729.8678 2083.7637 1744.5801 C 2096.557 1751.9362 2109.6705 1755.6133 2123.1035 1755.6133 C 2165.0016 1755.6133 2208.4973 1724.1106 2253.5938 1661.1035 C 2256.7921 1656.9457 2258.3926 1652.4674 2258.3926 1647.6699 C 2258.3926 1643.5121 2256.6334 1639.0338 2253.1152 1634.2363 C 2249.9169 1629.4388 2246.3985 1627.041 2242.5605 1627.041 C 2238.7226 1627.041 2233.445 1632.6379 2226.7285 1643.832 C 2218.7327 1657.5848 2205.4605 1671.9776 2186.9102 1687.0098 C 2166.4408 1703.6411 2149.4896 1711.957 2136.0566 1711.957 C 2131.2591 1711.957 2127.2608 1710.8365 2124.0625 1708.5977 C 2111.2692 1700.6018 2104.873 1686.0504 2104.873 1664.9414 C 2104.873 1646.0713 2108.7107 1624.6418 2116.3867 1600.6543 C 2117.9859 1595.2171 2120.705 1587.3811 2124.543 1577.1465 C 2128.7008 1566.9118 2133.8177 1554.1196 2139.8945 1538.7676 C 2147.2507 1520.5371 2156.5246 1501.9854 2167.7188 1483.1152 C 2179.2327 1464.2451 2192.8262 1444.7354 2208.498 1424.5859 C 2242.0805 1382.0482 2268.3076 1360.7793 2287.1777 1360.7793 C 2299.3314 1360.7793 2305.4082 1367.816 2305.4082 1381.8887 C 2305.4082 1391.8035 2302.3698 1402.9972 2296.293 1415.4707 C 2286.3781 1436.8995 2268.467 1451.7722 2242.5605 1460.0879 C 2235.8441 1462.0069 2232.4863 1465.3646 2232.4863 1470.1621 C 2232.4863 1472.7208 2233.9242 1476.3998 2236.8027 1481.1973 C 2240.9606 1488.5534 2246.7181 1492.5517 2254.0742 1493.1914 C 2262.3899 1493.5112 2274.8628 1487.5931 2291.4941 1475.4395 C 2310.6841 1461.6866 2324.5969 1445.856 2333.2324 1427.9453 C 2340.2687 1413.8727 2343.7871 1399.3193 2343.7871 1384.2871 C 2343.7871 1367.6558 2339.3108 1353.9036 2330.3555 1343.0293 C 2321.4001 1332.155 2308.7666 1326.7188 2292.4551 1326.7188 z M 2855.1777 1334.752 C 2837.1122 1335.0331 2822.9818 1348.6664 2812.7871 1375.6523 C 2802.5525 1401.5588 2791.5194 1435.3006 2779.6855 1476.8789 C 2764.9732 1528.6918 2756.338 1567.3919 2753.7793 1592.9785 C 2753.6198 1594.8927 2753.4979 1596.6858 2753.418 1598.3613 C 2747.4905 1605.7546 2739.4475 1612.2779 2729.2812 1617.9258 C 2719.6863 1623.3629 2711.8503 1626.2407 2705.7734 1626.5605 C 2694.2595 1627.2002 2686.5841 1627.0415 2682.7461 1626.082 C 2673.4709 1624.163 2669.7919 1618.5662 2671.7109 1609.291 C 2672.3506 1606.4125 2673.9491 1601.2937 2676.5078 1593.9375 C 2679.3863 1586.2615 2683.3846 1576.347 2688.502 1564.1934 C 2698.7366 1539.2464 2704.3335 1524.215 2705.293 1519.0977 C 2706.5723 1510.782 2704.0138 1503.9059 2697.6172 1498.4688 C 2693.7792 1495.2704 2686.1038 1490.4728 2674.5898 1484.0762 C 2668.8329 1480.8778 2664.0353 1478.4781 2660.1973 1476.8789 C 2656.3593 1474.9599 2653.3209 1473.522 2651.082 1472.5625 C 2648.8432 1471.2832 2647.4033 1470.1626 2646.7637 1469.2031 C 2646.124 1468.2436 2646.124 1466.8038 2646.7637 1464.8848 C 2648.6827 1459.4476 2649.4819 1455.2906 2649.1621 1452.4121 C 2647.8828 1437.0601 2641.0067 1429.2241 2628.5332 1428.9043 C 2613.8209 1428.5845 2604.7057 1437.5391 2601.1875 1455.7695 L 2600.2285 1460.5684 L 2600.2285 1464.8848 C 2600.2285 1469.0426 2601.1884 1473.0409 2603.1074 1476.8789 C 2605.0264 1480.7169 2606.145 1483.5966 2606.4648 1485.5156 C 2606.4648 1485.8355 2606.3062 1486.3154 2605.9863 1486.9551 C 2605.9863 1487.2749 2605.8257 1488.0742 2605.5059 1489.3535 C 2599.7489 1510.1427 2591.5935 1531.2509 2581.0391 1552.6797 C 2571.4441 1572.1895 2563.4474 1585.9417 2557.0508 1593.9375 C 2550.4165 1601.4868 2544.8645 1607.2873 2540.3574 1611.4004 C 2537.1969 1613.6419 2533.8508 1615.8226 2530.2754 1617.9258 C 2524.8333 1621.1911 2519.9588 1623.5281 2515.6484 1624.9414 C 2514.671 1625.2398 2513.6613 1625.519 2512.6445 1625.7949 C 2510.532 1626.3016 2508.5704 1626.5605 2506.7676 1626.5605 C 2490.4561 1626.5605 2479.7423 1624.0021 2474.625 1618.8848 C 2472.3862 1616.6459 2471.2656 1613.4488 2471.2656 1609.291 C 2471.2656 1604.8134 2472.3862 1599.2165 2474.625 1592.5 C 2476.8638 1585.7835 2479.581 1577.9475 2482.7793 1568.9922 C 2486.2975 1559.717 2490.6151 1549.1619 2495.7324 1537.3281 C 2509.1654 1507.2638 2518.1219 1487.4348 2522.5996 1477.8398 C 2524.8384 1471.763 2524.3585 1466.9654 2521.1602 1463.4473 C 2518.9213 1461.5283 2513.3245 1459.7691 2504.3691 1458.1699 C 2495.4138 1456.2509 2489.337 1455.771 2486.1387 1456.7305 C 2483.58 1457.69 2481.0216 1459.4491 2478.4629 1462.0078 C 2476.8637 1463.607 2474.9439 1466.1654 2472.7051 1469.6836 C 2470.7861 1473.2018 2467.2677 1473.5211 2462.1504 1470.6426 C 2451.2761 1464.8856 2439.2831 1462.1665 2426.1699 1462.4863 C 2408.5791 1462.8062 2391.1479 1467.7644 2373.877 1477.3594 C 2350.849 1490.1527 2332.9378 1508.8631 2320.1445 1533.4902 C 2307.3512 1557.7975 2300.9551 1580.3456 2300.9551 1601.1348 C 2300.9551 1617.1264 2305.4333 1630.0793 2314.3887 1639.9941 C 2323.0242 1650.5486 2335.1778 1655.8262 2350.8496 1655.8262 C 2367.1611 1655.8262 2384.271 1647.8295 2402.1816 1631.8379 C 2414.6551 1620.6437 2423.2904 1610.2493 2428.0879 1600.6543 C 2428.7276 1599.375 2429.5268 1598.2564 2430.4863 1597.2969 C 2431.7657 1596.3374 2432.7256 1596.0181 2433.3652 1596.3379 C 2433.6851 1596.9776 2433.6851 1597.9355 2433.3652 1599.2148 C 2430.8066 1608.8098 2429.5273 1615.8466 2429.5273 1620.3242 C 2429.5273 1629.9192 2433.5257 1637.7552 2441.5215 1643.832 C 2449.8371 1649.589 2465.1898 1652.4668 2487.5781 1652.4668 C 2492.0558 1652.4668 2496.3734 1652.3081 2500.5312 1651.9883 C 2504.4175 1651.6893 2508.1568 1651.2444 2511.7637 1650.666 C 2512.2635 1650.7722 2512.8037 1650.7458 2513.3945 1650.5488 C 2527.4672 1648.31 2540.7394 1642.3938 2553.2129 1632.7988 C 2573.3624 1616.1675 2590.153 1594.5774 2603.5859 1568.0312 C 2603.9058 1567.3916 2606.1449 1562.114 2610.3027 1552.1992 C 2614.4606 1541.9646 2620.5374 1526.9332 2628.5332 1507.1035 C 2630.1324 1502.6259 2632.2128 1501.186 2634.7715 1502.7852 C 2645.326 1508.5421 2651.7221 1513.661 2653.9609 1518.1387 C 2656.1998 1522.9362 2656.1998 1527.2538 2653.9609 1531.0918 C 2651.4023 1535.2496 2647.5646 1544.5235 2642.4473 1558.916 C 2638.9291 1568.1912 2635.8907 1576.8264 2633.332 1584.8223 C 2631.0932 1592.8181 2629.1734 1600.4954 2627.5742 1607.8516 C 2626.6147 1612.3292 2626.1348 1616.1669 2626.1348 1619.3652 C 2626.1348 1632.1586 2633.0109 1641.7537 2646.7637 1648.1504 C 2660.8363 1654.547 2682.4265 1655.3463 2711.5312 1650.5488 C 2727.7252 1648.4496 2742.5124 1641.1477 2755.8945 1628.6445 C 2758.9627 1636.4518 2764.3229 1642.4831 2772.0098 1646.7109 C 2781.6048 1651.1886 2793.5978 1653.4277 2807.9902 1653.4277 C 2816.9456 1653.4277 2826.5407 1652.4678 2836.7754 1650.5488 C 2853.5555 1647.852 2868.3708 1640.5235 2881.2207 1628.5625 C 2881.5351 1629.1783 2881.8623 1629.7907 2882.2168 1630.3984 C 2884.4556 1634.2364 2887.0141 1637.5961 2889.8926 1640.4746 C 2893.0909 1643.3531 2896.4486 1645.7509 2899.9668 1647.6699 C 2903.485 1649.5889 2906.8427 1650.5488 2910.041 1650.5488 C 2924.7533 1652.148 2941.0659 1645.5912 2958.9766 1630.8789 C 2972.0897 1619.6848 2981.5243 1609.2903 2987.2812 1599.6953 C 2988.5606 1597.4565 2990.0004 1596.3379 2991.5996 1596.3379 C 2994.1583 1596.3379 2994.6382 1597.6171 2993.0391 1600.1758 C 2984.7234 1621.9244 2977.0461 1642.5527 2970.0098 1662.0625 C 2968.7304 1665.2608 2967.4512 1667.1806 2966.1719 1667.8203 C 2960.7347 1671.0186 2953.3787 1676.7742 2944.1035 1685.0898 C 2933.2292 1695.3245 2925.5538 1704.761 2921.0762 1713.3965 C 2916.2787 1722.9915 2913.8789 1731.1468 2913.8789 1737.8633 C 2913.8789 1750.6566 2920.7569 1757.0527 2934.5098 1757.0527 C 2943.4651 1757.0527 2954.4982 1751.4559 2967.6113 1740.2617 C 2974.6477 1734.1849 2983.1242 1721.5513 2993.0391 1702.3613 C 3003.2737 1681.892 3008.7099 1671.1782 3009.3496 1670.2188 C 3015.4264 1663.5023 3019.5854 1659.1846 3021.8242 1657.2656 C 3024.7027 1655.3466 3030.6189 1654.0674 3039.5742 1653.4277 C 3053.0072 1653.1079 3063.0823 1652.148 3069.7988 1650.5488 C 3087.7095 1647.6703 3103.3815 1639.515 3116.8145 1626.082 C 3118.4136 1624.4829 3119.5322 1620.9645 3120.1719 1615.5273 C 3120.8115 1608.491 3120.0123 1602.2536 3117.7734 1596.8164 C 3116.8139 1593.9379 3115.5347 1593.458 3113.9355 1595.377 C 3108.1786 1602.4133 3100.6619 1609.1307 3091.3867 1615.5273 C 3080.8322 1622.2438 3071.717 1625.9209 3064.041 1626.5605 C 3057.6444 1626.8804 3052.3668 1627.041 3048.209 1627.041 C 3044.371 1627.041 3041.8125 1627.2017 3040.5332 1627.5215 C 3031.8977 1628.481 3026.7808 1629.1196 3025.1816 1629.4395 C 3023.5825 1629.7593 3022.6226 1629.9199 3022.3027 1629.9199 C 3021.6631 1629.2803 3021.3438 1628.6397 3021.3438 1628 C 3021.9834 1627.0405 3022.4634 1625.442 3022.7832 1623.2031 C 3057.0053 1523.4152 3074.1152 1472.4009 3074.1152 1470.1621 C 3074.1152 1465.0448 3071.3981 1461.2071 3065.9609 1458.6484 C 3063.0824 1457.3691 3058.9235 1456.5698 3053.4863 1456.25 C 3047.7293 1455.6103 3044.0523 1455.6103 3042.4531 1456.25 C 3037.016 1458.169 3033.6563 1460.5688 3032.377 1463.4473 C 3026.62 1476.2406 3021.0231 1488.8722 3015.5859 1501.3457 L 2999.2754 1537.8066 C 2981.6846 1572.9883 2967.4524 1594.7371 2956.5781 1603.0527 C 2947.6228 1609.7692 2938.9875 1611.8497 2930.6719 1609.291 C 2924.2752 1607.0522 2921.3955 1599.3749 2922.0352 1586.2617 C 2922.355 1580.8246 2929.0724 1560.9956 2942.1855 1526.7734 C 2954.659 1494.7901 2962.3344 1476.5597 2965.2129 1472.082 C 2968.7311 1466.6449 2968.4117 1462.3272 2964.2539 1459.1289 C 2956.8977 1453.6917 2949.5417 1450.9727 2942.1855 1450.9727 C 2940.9062 1450.9727 2939.4664 1451.1333 2937.8672 1451.4531 C 2936.5879 1451.4531 2935.148 1451.6118 2933.5488 1451.9316 C 2927.1522 1452.8911 2922.5152 1455.7709 2919.6367 1460.5684 C 2916.1186 1466.6452 2912.1202 1474.4812 2907.6426 1484.0762 C 2903.4847 1493.3513 2899.1671 1504.5451 2894.6895 1517.6582 C 2883.3942 1550.3229 2877.5023 1577.8756 2876.9883 1600.3418 C 2874.7039 1602.9673 2872.1746 1605.472 2869.3984 1607.8516 C 2864.9208 1611.3697 2859.9626 1614.7275 2854.5254 1617.9258 C 2844.9304 1623.6828 2837.0944 1626.5605 2831.0176 1626.5605 C 2813.7466 1626.5605 2802.8722 1624.3234 2798.3945 1619.8457 C 2796.1557 1617.6069 2795.0371 1614.4078 2795.0371 1610.25 C 2795.0371 1606.7318 2796.1557 1600.4944 2798.3945 1591.5391 C 2805.4309 1559.8756 2817.9058 1517.1792 2835.8164 1463.4473 C 2840.6139 1452.5729 2843.9716 1445.8555 2845.8906 1443.2969 C 2861.2426 1422.8276 2872.2757 1402.6773 2878.9922 1382.8477 C 2880.9112 1376.7708 2881.8711 1371.0153 2881.8711 1365.5781 C 2881.8711 1356.9426 2879.632 1349.9059 2875.1543 1344.4688 C 2870.9965 1338.7118 2865.5602 1335.5127 2858.8438 1334.873 C 2857.6044 1334.7731 2856.3821 1334.7332 2855.1777 1334.752 z M 2437.7793 1497.9219 C 2438.3952 1497.9256 2439.0019 1497.9483 2439.6016 1497.9883 C 2450.4759 1498.3081 2455.9141 1501.1859 2455.9141 1506.623 C 2455.9141 1507.9024 2455.7534 1508.8623 2455.4336 1509.502 C 2440.4014 1541.8051 2425.5307 1566.9116 2410.8184 1584.8223 C 2405.3812 1591.2189 2400.9029 1596.4965 2397.3848 1600.6543 C 2394.1864 1604.4923 2391.7867 1607.2114 2390.1875 1608.8105 C 2381.8718 1617.1262 2374.6764 1621.2832 2368.5996 1621.2832 C 2357.0856 1621.2832 2351.3281 1613.7685 2351.3281 1598.7363 C 2351.3281 1583.0645 2358.5255 1563.8742 2372.918 1541.166 C 2380.9138 1529.0124 2391.4669 1518.6179 2404.5801 1509.9824 C 2417.4733 1501.8867 2428.5404 1497.8657 2437.7793 1497.9219 z " id="body5"/>
  <path style="font-style:normal;font-weight:normal;font-size:479.74942017px;font-family:Marketing-Script, 'Marketing Script', 'Marketing Script';letter-spacing:0px;fill:#000000;stroke-width:19.98955917" d="M 3059.3418 1709.4512 C 3056.4633 1709.4512 3054.2242 1709.6921 3052.625 1710.1719 C 3046.5482 1711.4512 3041.2706 1715.4495 3036.793 1722.166 C 3035.1938 1724.085 3027.3578 1743.2734 3013.2852 1779.7344 C 3006.8885 1796.3657 3001.7716 1809.4792 2997.9336 1819.0742 C 2994.0956 1828.6692 2991.8565 1834.746 2991.2168 1837.3047 C 2990.2573 1840.503 2987.5382 1841.6236 2983.0605 1840.6641 C 2974.1052 1839.0649 2966.5905 1837.7857 2960.5137 1836.8262 C 2954.7567 1835.8667 2950.2784 1835.5454 2947.0801 1835.8652 C 2933.9669 1836.8247 2919.4135 1841.6223 2903.4219 1850.2578 C 2877.8352 1864.3305 2859.1248 1884.6394 2847.291 1911.1855 C 2835.4572 1937.7317 2829.541 1961.081 2829.541 1981.2305 C 2829.541 1981.7713 2829.5569 1982.2988 2829.5664 1982.832 C 2828.4465 1983.9195 2827.2842 1984.9869 2826.0703 1986.0273 C 2821.5927 1989.5455 2816.6364 1992.9032 2811.1992 1996.1016 C 2801.6042 2001.8586 2793.7682 2004.7383 2787.6914 2004.7383 C 2774.2584 2004.7383 2765.1432 2003.2984 2760.3457 2000.4199 C 2755.5482 1997.5414 2753.1484 1993.7037 2753.1484 1988.9062 C 2753.1484 1986.9873 2753.6284 1984.2682 2754.5879 1980.75 C 2754.9077 1980.1103 2756.3476 1976.2727 2758.9062 1969.2363 C 2761.4649 1962.2 2765.3026 1951.8056 2770.4199 1938.0527 C 2780.0149 1912.7859 2786.2524 1894.5555 2789.1309 1883.3613 C 2791.3697 1875.3655 2792.4883 1868.1681 2792.4883 1861.7715 C 2792.4883 1849.298 2786.2508 1840.3434 2773.7773 1834.9062 C 2769.2997 1832.9873 2764.5021 1832.0273 2759.3848 1832.0273 C 2735.3973 1832.0273 2706.7724 1852.9769 2673.5098 1894.875 C 2672.2304 1897.1138 2670.6319 1898.2324 2668.7129 1898.2324 C 2666.7939 1898.2324 2666.6333 1896.3146 2668.2324 1892.4766 C 2676.2282 1868.1693 2681.5058 1851.3767 2684.0645 1842.1016 C 2685.3438 1836.3446 2684.8638 1832.3482 2682.625 1830.1094 C 2680.3862 1827.8705 2674.9499 1826.5913 2666.3145 1826.2715 C 2657.9988 1825.9517 2652.2413 1826.4316 2649.043 1827.7109 C 2642.6463 1829.9498 2638.168 1834.2674 2635.6094 1840.6641 C 2634.9697 1842.9029 2632.5719 1851.5382 2628.4141 1866.5703 C 2624.5761 1881.2826 2619.1379 1902.7102 2612.1016 1930.8555 C 2607.9167 1947.69 2604.539 1961.4504 2601.5703 1973.6465 C 2598.3853 1978.0888 2594.5698 1982.2159 2590.123 1986.0273 C 2585.6454 1989.5455 2580.6891 1992.9032 2575.252 1996.1016 C 2565.657 2001.8586 2557.821 2004.7383 2551.7441 2004.7383 C 2535.4327 2004.7383 2524.7189 2002.1779 2519.6016 1997.0605 C 2517.3627 1994.8217 2516.2422 1991.6246 2516.2422 1987.4668 C 2516.2422 1982.9891 2517.3627 1977.3923 2519.6016 1970.6758 C 2521.8404 1963.9593 2524.5575 1956.1233 2527.7559 1947.168 C 2531.274 1937.8928 2535.5917 1927.3377 2540.709 1915.5039 C 2554.142 1885.4396 2563.0985 1865.6106 2567.5762 1856.0156 C 2569.815 1849.9388 2569.335 1845.1412 2566.1367 1841.623 C 2563.8979 1839.704 2558.301 1837.9449 2549.3457 1836.3457 C 2540.3904 1834.4267 2534.3136 1833.9468 2531.1152 1834.9062 C 2528.5566 1835.8657 2525.9981 1837.6249 2523.4395 1840.1836 C 2521.8403 1841.7828 2519.9205 1844.3412 2517.6816 1847.8594 C 2515.7626 1851.3775 2512.2443 1851.6969 2507.127 1848.8184 C 2496.2526 1843.0614 2484.2596 1840.3442 2471.1465 1840.6641 C 2453.5557 1840.9839 2436.1245 1845.9402 2418.8535 1855.5352 C 2395.8255 1868.3285 2377.9144 1887.0389 2365.1211 1911.666 C 2352.3278 1935.9733 2345.9316 1958.5214 2345.9316 1979.3105 C 2345.9316 1981.8466 2346.058 1984.2984 2346.2832 1986.6816 C 2342.0296 1989.9607 2337.3702 1993.1035 2332.2734 1996.1016 C 2322.6784 2001.8586 2314.8425 2004.7383 2308.7656 2004.7383 C 2300.45 2004.7383 2292.7746 2003.6177 2285.7383 2001.3789 C 2283.1796 2000.7392 2281.9004 1999.7793 2281.9004 1998.5 C 2281.9004 1997.5405 2283.019 1994.6627 2285.2578 1989.8652 C 2292.614 1970.6753 2296.293 1952.1255 2296.293 1934.2148 C 2296.293 1910.2274 2285.7379 1890.0771 2264.6289 1873.7656 L 2215.6953 1846.4199 C 2195.226 1834.5861 2184.9902 1821.1532 2184.9902 1806.1211 C 2184.9902 1799.7244 2186.9101 1792.3684 2190.748 1784.0527 C 2203.5414 1758.1463 2226.8887 1745.1934 2260.791 1745.1934 C 2267.8273 1745.1934 2274.2235 1745.9926 2279.9805 1747.5918 C 2296.2919 1752.3893 2306.5277 1759.7453 2310.6855 1769.6602 C 2311.645 1772.8585 2312.4443 1775.8969 2313.084 1778.7754 C 2314.0435 1781.3341 2315.642 1782.9326 2317.8809 1783.5723 C 2326.8362 1785.8111 2333.7123 1781.3348 2338.5098 1770.1406 C 2339.7891 1767.582 2340.4297 1764.0636 2340.4297 1759.5859 C 2340.4297 1749.3513 2336.2707 1739.7561 2327.9551 1730.8008 C 2317.4006 1719.9265 2301.5699 1713.2091 2280.4609 1710.6504 C 2277.9023 1710.3306 2275.5025 1710.1719 2273.2637 1710.1719 C 2271.0248 1709.852 2268.627 1709.6914 2266.0684 1709.6914 C 2242.4007 1709.6914 2220.0113 1715.4489 2198.9023 1726.9629 C 2176.8339 1739.4364 2160.6839 1756.0683 2150.4492 1776.8574 C 2143.7327 1790.2904 2140.373 1803.402 2140.373 1816.1953 C 2140.373 1848.4984 2158.2842 1872.9663 2194.1055 1889.5977 C 2231.2061 1906.8686 2249.7559 1927.0189 2249.7559 1950.0469 C 2249.7559 1961.8807 2245.4382 1975.6329 2236.8027 1991.3047 C 2234.2441 1996.1022 2230.0871 1998.02 2224.3301 1997.0605 L 2161.0039 1981.2305 C 2123.5835 1972.595 2098.3163 1968.916 2085.2031 1970.1953 C 2058.9768 1972.4341 2044.4234 1985.2284 2041.5449 2008.5762 C 2039.6259 2022.0092 2044.1042 2034.6427 2054.9785 2046.4766 C 2066.1727 2059.9095 2083.2845 2069.1835 2106.3125 2074.3008 C 2113.6687 2075.8999 2120.8641 2077.1792 2127.9004 2078.1387 C 2134.9367 2079.0982 2141.9734 2079.5781 2149.0098 2079.5781 C 2191.2277 2079.5781 2227.2087 2064.0668 2256.9531 2033.043 C 2260.7911 2029.205 2264.6288 2027.7651 2268.4668 2028.7246 C 2281.2601 2031.6031 2296.6128 2031.6031 2314.5234 2028.7246 C 2328.7886 2026.8754 2341.9578 2020.977 2354.041 2011.0547 C 2355.5958 2013.5757 2357.3627 2015.9528 2359.3652 2018.1699 C 2368.0007 2028.7244 2380.1544 2034.002 2395.8262 2034.002 C 2412.1377 2034.002 2429.2476 2026.0073 2447.1582 2010.0156 C 2459.6317 1998.8215 2468.267 1988.4251 2473.0645 1978.8301 C 2473.7041 1977.5507 2474.5034 1976.4322 2475.4629 1975.4727 C 2476.7422 1974.5132 2477.7021 1974.1938 2478.3418 1974.5137 C 2478.6616 1975.1533 2478.6616 1976.1132 2478.3418 1977.3926 C 2475.7831 1986.9876 2474.5039 1994.0223 2474.5039 1998.5 C 2474.5039 2008.095 2478.5022 2015.931 2486.498 2022.0078 C 2494.8137 2027.7648 2510.1664 2030.6445 2532.5547 2030.6445 C 2537.0323 2030.6445 2541.35 2030.4839 2545.5078 2030.1641 C 2549.6656 2029.8442 2553.662 2029.3643 2557.5 2028.7246 C 2570.0519 2026.7073 2581.5007 2022.0876 2591.8535 2014.8867 C 2591.0642 2018.5678 2590.5867 2021.0589 2590.5137 2022.0078 C 2590.1938 2027.1251 2592.433 2030.4848 2597.2305 2032.084 C 2606.5056 2034.9625 2615.9402 2033.5226 2625.5352 2027.7656 C 2629.3732 2025.207 2631.9316 2021.3693 2633.2109 2016.252 C 2634.8101 2011.1346 2637.6898 2004.0979 2641.8477 1995.1426 C 2646.0055 1986.1873 2651.6023 1974.9935 2658.6387 1961.5605 C 2675.27 1929.8971 2690.1408 1907.5077 2703.2539 1894.3945 C 2716.6869 1881.2814 2726.6033 1875.6845 2733 1877.6035 C 2735.8785 1878.563 2737.3164 1880.6415 2737.3164 1883.8398 C 2737.3164 1888.3175 2735.3985 1894.075 2731.5605 1901.1113 C 2729.0019 1906.5485 2726.1222 1913.1053 2722.9238 1920.7812 C 2719.7255 1928.1374 2716.3678 1936.7727 2712.8496 1946.6875 C 2705.1736 1969.3956 2701.3359 1985.0676 2701.3359 1993.7031 C 2701.3359 2008.7353 2709.9712 2019.6097 2727.2422 2026.3262 C 2745.1528 2032.7228 2767.221 2033.5221 2793.4473 2028.7246 C 2809.0912 2026.2104 2823.026 2019.6678 2835.2539 2009.1016 C 2836.9641 2012.5913 2839.0566 2015.7753 2841.5352 2018.6504 C 2850.1706 2028.885 2862.005 2034.002 2877.0371 2034.002 C 2900.3849 2034.002 2926.7707 2014.4923 2956.1953 1975.4727 C 2958.4341 1972.2743 2960.0327 1970.6758 2960.9922 1970.6758 C 2961.6319 1970.6758 2961.7925 1971.7944 2961.4727 1974.0332 C 2960.1933 1980.4299 2959.2334 1985.7074 2958.5938 1989.8652 C 2958.2739 1993.7032 2958.1133 1996.4223 2958.1133 1998.0215 C 2958.1133 2007.6165 2962.2722 2015.4525 2970.5879 2021.5293 C 2979.2234 2027.6061 2994.4154 2030.6445 3016.1641 2030.6445 C 3020.3219 2030.6445 3024.3202 2030.4839 3028.1582 2030.1641 C 3032.316 2029.8442 3036.1537 2029.3643 3039.6719 2028.7246 C 3056.3562 2026.0432 3071.0957 2018.7776 3083.8945 2006.9375 C 3086.9704 2014.6876 3092.3146 2020.6802 3099.9629 2024.8867 C 3109.5579 2029.3644 3121.5509 2031.6035 3135.9434 2031.6035 C 3144.8987 2031.6035 3154.4939 2030.6436 3164.7285 2028.7246 C 3182.6392 2025.8461 3198.3112 2017.6908 3211.7441 2004.2578 C 3212.1889 2003.8131 3212.5924 2003.2044 3212.9629 2002.4629 C 3216.3637 2007.1332 3220.3869 2011.411 3225.043 2015.291 C 3240.0751 2027.4447 3265.9809 2033.5234 3302.7617 2033.5234 C 3320.3525 2033.5234 3336.1832 2032.0836 3350.2559 2029.2051 C 3355.4855 2028.2712 3360.5193 2026.8865 3365.3672 2025.0801 C 3374.2205 2021.9513 3382.7328 2017.2574 3390.9004 2010.9746 C 3411.0499 1994.3433 3427.8405 1972.7551 3441.2734 1946.209 C 3441.5933 1945.5693 3443.8324 1940.2918 3447.9902 1930.377 C 3452.1481 1920.1423 3458.2249 1905.1089 3466.2207 1885.2793 C 3467.8199 1880.8016 3469.9003 1879.3637 3472.459 1880.9629 C 3483.0135 1886.7199 3489.4096 1891.8368 3491.6484 1896.3145 C 3493.8873 1901.1119 3493.8873 1905.4296 3491.6484 1909.2676 C 3489.0898 1913.4254 3485.2521 1922.7013 3480.1348 1937.0938 C 3476.6166 1946.3689 3473.5782 1955.0042 3471.0195 1963 C 3468.7807 1970.9958 3466.8609 1978.6712 3465.2617 1986.0273 C 3464.3022 1990.505 3463.8223 1994.3427 3463.8223 1997.541 C 3463.8223 2010.3343 3470.6984 2019.9295 3484.4512 2026.3262 C 3498.5238 2032.7228 3520.114 2033.5221 3549.2188 2028.7246 C 3566.4897 2026.4858 3582.1598 2018.3305 3596.2324 2004.2578 C 3597.8316 2002.6586 3598.9521 1999.1403 3599.5918 1993.7031 C 3600.2315 1986.6668 3599.4322 1980.4293 3597.1934 1974.9922 C 3596.2339 1972.1137 3594.9546 1971.6357 3593.3555 1973.5547 C 3587.2786 1982.1902 3578.4827 1989.7049 3566.9688 1996.1016 C 3557.3738 2001.5387 3549.5378 2004.4184 3543.4609 2004.7383 C 3531.947 2005.3779 3524.2716 2005.2173 3520.4336 2004.2578 C 3511.1584 2002.3388 3507.4794 1996.742 3509.3984 1987.4668 C 3510.0381 1984.5883 3511.6366 1979.4714 3514.1953 1972.1152 C 3517.0738 1964.4392 3521.0721 1954.5228 3526.1895 1942.3691 C 3536.4241 1917.4222 3542.021 1902.3908 3542.9805 1897.2734 C 3544.2598 1888.9578 3541.7013 1882.0817 3535.3047 1876.6445 C 3531.4667 1873.4462 3523.7913 1868.6486 3512.2773 1862.252 C 3506.5204 1859.0536 3501.7228 1856.6558 3497.8848 1855.0566 C 3494.0468 1853.1376 3491.0084 1851.6978 3488.7695 1850.7383 C 3486.5307 1849.4589 3485.0908 1848.3384 3484.4512 1847.3789 C 3483.8115 1846.4194 3483.8115 1844.9815 3484.4512 1843.0625 C 3486.3702 1837.6253 3487.1694 1833.4664 3486.8496 1830.5879 C 3485.5703 1815.2359 3478.6942 1807.3999 3466.2207 1807.0801 C 3451.5084 1806.7602 3442.3932 1815.7168 3438.875 1833.9473 L 3437.916 1838.7441 L 3437.916 1843.0625 C 3437.916 1847.2203 3438.8759 1851.2186 3440.7949 1855.0566 C 3442.7139 1858.8946 3443.8325 1861.7724 3444.1523 1863.6914 C 3444.1523 1864.0112 3443.9937 1864.4912 3443.6738 1865.1309 C 3443.6738 1865.4507 3443.5132 1866.25 3443.1934 1867.5293 C 3437.4364 1888.3184 3429.281 1909.4267 3418.7266 1930.8555 C 3409.1316 1950.3653 3401.1349 1964.1194 3394.7383 1972.1152 C 3385.4631 1982.6697 3378.2677 1989.8651 3373.1504 1993.7031 C 3370.1782 1995.8647 3366.7808 1997.7832 3363.0098 1999.4883 C 3357.0236 2002.0185 3350.6942 2003.6119 3344.0195 2004.2578 C 3313.6354 2007.1363 3291.4066 2004.5779 3277.334 1996.582 C 3273.496 1994.663 3271.5781 1993.0645 3271.5781 1991.7852 C 3271.5781 1991.4653 3272.3774 1990.5054 3273.9766 1988.9062 C 3280.0534 1984.4286 3286.1302 1979.4704 3292.207 1974.0332 C 3298.6037 1968.2762 3304.9998 1961.8801 3311.3965 1954.8438 C 3331.8658 1932.7753 3343.3808 1914.0649 3345.9395 1898.7129 C 3346.899 1892.9559 3347.3789 1887.5197 3347.3789 1882.4023 C 3347.3789 1859.3744 3338.103 1843.8611 3319.5527 1835.8652 C 3314.7552 1833.6264 3308.1985 1832.5078 3299.8828 1832.5078 C 3285.1705 1832.5078 3270.9384 1836.3455 3257.1855 1844.0215 C 3240.5542 1852.9768 3227.6013 1866.5703 3218.3262 1884.8008 C 3205.5329 1910.0676 3199.1348 1933.7343 3199.1348 1955.8027 C 3199.1348 1964.9597 3200.2765 1973.3983 3202.5449 1981.127 C 3200.9199 1982.8134 3199.1929 1984.449 3197.3516 1986.0273 C 3192.8739 1989.5455 3187.9157 1992.9032 3182.4785 1996.1016 C 3172.8835 2001.8586 3165.0495 2004.7383 3158.9727 2004.7383 C 3141.7017 2004.7383 3130.8273 2002.4991 3126.3496 1998.0215 C 3124.1108 1995.7827 3122.9902 1992.5836 3122.9902 1988.4258 C 3122.9902 1984.9076 3124.1108 1978.6702 3126.3496 1969.7148 C 3133.3859 1938.0514 3145.8589 1895.355 3163.7695 1841.623 C 3168.567 1830.7487 3171.9248 1824.0313 3173.8438 1821.4727 C 3189.1957 1801.0033 3200.2308 1780.855 3206.9473 1761.0254 C 3208.8663 1754.9486 3209.8242 1749.1911 3209.8242 1743.7539 C 3209.8242 1735.1184 3207.587 1728.0817 3203.1094 1722.6445 C 3198.9515 1716.8875 3193.5134 1713.6904 3186.7969 1713.0508 C 3166.9672 1711.4516 3151.6165 1725.0432 3140.7422 1753.8281 C 3130.5075 1779.7346 3119.4725 1813.4784 3107.6387 1855.0566 C 3092.9264 1906.8696 3084.2911 1945.5677 3081.7324 1971.1543 C 3081.5659 1973.1528 3081.4451 1975.0156 3081.3652 1976.7539 C 3078.7076 1980.028 3075.6865 1983.1203 3072.2949 1986.0273 C 3067.8173 1989.5455 3062.859 1992.9032 3057.4219 1996.1016 C 3047.8269 2001.8586 3039.9909 2004.7383 3033.9141 2004.7383 C 3017.6026 2004.7383 3006.8888 2002.1779 3001.7715 1997.0605 C 2998.5732 1993.8622 2998.2538 1984.747 3000.8125 1969.7148 C 3004.0108 1953.4034 3014.564 1919.6616 3032.4746 1868.4883 C 3043.6688 1839.7033 3054.0632 1813.9562 3063.6582 1791.248 C 3073.2532 1768.5399 3081.7298 1748.5522 3089.0859 1731.2812 C 3091.3248 1725.2044 3090.0455 1719.7662 3085.248 1714.9688 C 3083.6489 1713.3696 3078.532 1711.771 3069.8965 1710.1719 C 3065.7387 1709.6921 3062.2203 1709.4512 3059.3418 1709.4512 z M 3303.2422 1869.9277 C 3312.5173 1869.9277 3317.1543 1875.3659 3317.1543 1886.2402 C 3317.1543 1893.9162 3313.6359 1903.6701 3306.5996 1915.5039 C 3295.4055 1934.6939 3279.0948 1951.0065 3257.666 1964.4395 C 3251.2694 1968.9171 3248.0703 1966.0374 3248.0703 1955.8027 C 3248.0703 1941.4103 3253.1872 1923.4991 3263.4219 1902.0703 C 3267.8995 1892.4753 3273.9764 1884.8 3281.6523 1879.043 C 3289.6482 1872.9661 3296.8455 1869.9277 3303.2422 1869.9277 z M 2965.707 1872.7871 C 2966.2218 1872.7796 2966.7288 1872.7867 2967.2285 1872.8066 C 2974.5847 1873.4463 2977.6231 1875.8441 2976.3438 1880.002 C 2975.7041 1882.5606 2974.1055 1886.5589 2971.5469 1891.9961 C 2968.9882 1897.4333 2965.4698 1904.6306 2960.9922 1913.5859 C 2955.8749 1922.8611 2951.2379 1931.1751 2947.0801 1938.5312 C 2943.2421 1945.5676 2939.7237 1951.3251 2936.5254 1955.8027 C 2931.4081 1963.1589 2927.2511 1969.2357 2924.0527 1974.0332 C 2920.8544 1978.5109 2918.4546 1981.5493 2916.8555 1983.1484 C 2908.5398 1992.4236 2900.7038 1997.0605 2893.3477 1997.0605 C 2882.7932 1997.0605 2877.5156 1990.9837 2877.5156 1978.8301 C 2877.5156 1964.4376 2885.0323 1944.6086 2900.0645 1919.3418 C 2909.6594 1903.3501 2922.1324 1891.0378 2937.4844 1882.4023 C 2948.5786 1876.1056 2957.9861 1872.8996 2965.707 1872.7871 z M 2482.7559 1876.0996 C 2483.3718 1876.1034 2483.9784 1876.1241 2484.5781 1876.1641 C 2495.4524 1876.4839 2500.8906 1879.3636 2500.8906 1884.8008 C 2500.8906 1886.0801 2500.73 1887.0381 2500.4102 1887.6777 C 2485.378 1919.9809 2470.5072 1945.0894 2455.7949 1963 C 2450.3578 1969.3967 2445.8795 1974.6722 2442.3613 1978.8301 C 2439.163 1982.6681 2436.7632 1985.3872 2435.1641 1986.9863 C 2426.8484 1995.302 2419.653 1999.4609 2413.5762 1999.4609 C 2402.0622 1999.4609 2396.3047 1991.9443 2396.3047 1976.9121 C 2396.3047 1961.2403 2403.502 1942.0499 2417.8945 1919.3418 C 2425.8904 1907.1881 2436.4435 1896.7937 2449.5566 1888.1582 C 2462.4499 1880.0624 2473.5169 1876.0434 2482.7559 1876.0996 z M 2094.1309 1998.9434 C 2094.8155 1998.9284 2095.5167 1998.9405 2096.2363 1998.9805 C 2116.066 2002.4986 2133.9771 2006.017 2149.9688 2009.5352 C 2166.2802 2013.0533 2181.153 2016.411 2194.5859 2019.6094 C 2201.9421 2021.2085 2205.6191 2023.1284 2205.6191 2025.3672 C 2205.6191 2027.2862 2203.0607 2029.3647 2197.9434 2031.6035 C 2178.1137 2041.8382 2157.9654 2046.9551 2137.4961 2046.9551 C 2115.4276 2046.9551 2097.6752 2041.1976 2084.2422 2029.6836 C 2079.4447 2025.8456 2077.0469 2021.048 2077.0469 2015.291 C 2077.0469 2010.4935 2078.8061 2006.4972 2082.3242 2003.2988 C 2085.4026 2000.5003 2089.3384 1999.0483 2094.1309 1998.9434 z " id="body6"/>
</svg>
